<svg xmlns="http://www.w3.org/2000/svg" xmlns:xlink="http://www.w3.org/1999/xlink" width="180" zoomAndPan="magnify" viewBox="0 0 135 135.000003" height="180" preserveAspectRatio="xMidYMid meet" version="1.0"><defs><clipPath id="id1"><path d="M 6.3125 8 L 88 8 L 88 64 L 6.3125 64 Z M 6.3125 8 " clip-rule="nonzero"/></clipPath><clipPath id="id2"><path d="M 29 24 L 128.40625 24 L 128.40625 80 L 29 80 Z M 29 24 " clip-rule="nonzero"/></clipPath><clipPath id="id3"><path d="M 6.3125 8 L 84 8 L 84 62 L 6.3125 62 Z M 6.3125 8 " clip-rule="nonzero"/></clipPath><clipPath id="id4"><path d="M 49 67 L 86 67 L 86 131.066406 L 49 131.066406 Z M 49 67 " clip-rule="nonzero"/></clipPath></defs><g clip-path="url(#id1)"><path fill="#000000" d="M 87.050781 24.453125 C 78.71875 24.453125 71.113281 28.460938 66.355469 35.011719 C 55.03125 31.746094 43.734375 40.289062 43.734375 52.09375 C 36.792969 52.09375 31.050781 57.242188 30.097656 63.9375 L 20.113281 63.9375 C 12.503906 63.9375 6.332031 57.75 6.332031 50.117188 C 6.332031 42.484375 12.503906 36.296875 20.113281 36.296875 C 20.113281 24.472656 31.429688 15.960938 42.730469 19.21875 C 54.492188 3.027344 79.386719 6.007812 87.050781 24.453125 Z M 87.050781 24.453125 " fill-opacity="1" fill-rule="nonzero"/></g><g clip-path="url(#id2)"><path fill="#000000" d="M 110.667969 79.734375 L 43.734375 79.734375 C 36.125 79.734375 29.957031 73.546875 29.957031 65.914062 C 29.957031 58.28125 36.125 52.09375 43.734375 52.09375 C 43.734375 40.269531 55.054688 31.753906 66.355469 35.011719 C 79.25 17.261719 106.996094 22.96875 111.960938 44.242188 C 121.144531 44.90625 128.386719 52.589844 128.386719 61.964844 C 128.386719 71.777344 120.453125 79.734375 110.667969 79.734375 Z M 110.667969 79.734375 " fill-opacity="1" fill-rule="nonzero"/></g><path fill="#000000" d="M 107 34.050781 C 95.660156 24.910156 78.921875 27.082031 70.292969 38.960938 C 58.96875 35.695312 47.671875 44.238281 47.671875 56.042969 C 36.585938 56.042969 30.222656 68.4375 36.160156 77.457031 C 32.421875 74.988281 29.957031 70.742188 29.957031 65.914062 C 29.957031 58.28125 36.125 52.09375 43.734375 52.09375 C 43.734375 40.269531 55.054688 31.753906 66.355469 35.011719 C 76.289062 21.339844 96.433594 20.863281 107 34.050781 Z M 107 34.050781 " fill-opacity="1" fill-rule="nonzero"/><g clip-path="url(#id3)"><path fill="#000000" d="M 83.378906 18.253906 C 72.039062 9.117188 55.300781 11.285156 46.667969 23.167969 C 35.34375 19.902344 24.050781 28.445312 24.050781 40.246094 C 12.960938 40.246094 6.597656 52.640625 12.539062 61.664062 C 8.796875 59.191406 6.332031 54.945312 6.332031 50.117188 C 6.332031 42.484375 12.503906 36.296875 20.113281 36.296875 C 20.113281 24.472656 31.429688 15.960938 42.730469 19.21875 C 52.664062 5.542969 72.808594 5.070312 83.378906 18.253906 Z M 83.378906 18.253906 " fill-opacity="1" fill-rule="nonzero"/></g><g clip-path="url(#id4)"><path fill="#000000" d="M 77.203125 67.886719 L 49.640625 103.425781 L 65.390625 103.425781 L 53.578125 131.066406 L 85.074219 95.527344 L 69.328125 95.527344 Z M 77.203125 67.886719 " fill-opacity="1" fill-rule="nonzero"/></g><path fill="#000000" d="M 41.765625 71.835938 C 41.765625 72.925781 40.886719 73.8125 39.796875 73.8125 C 38.710938 73.8125 37.832031 72.925781 37.832031 71.835938 C 37.832031 70.746094 38.710938 69.863281 39.796875 69.863281 C 40.886719 69.863281 41.765625 70.746094 41.765625 71.835938 Z M 41.765625 71.835938 " fill-opacity="1" fill-rule="nonzero"/><path fill="#000000" d="M 37.832031 68.875 C 37.832031 69.421875 37.390625 69.863281 36.847656 69.863281 C 36.300781 69.863281 35.859375 69.421875 35.859375 68.875 C 35.859375 68.328125 36.300781 67.886719 36.847656 67.886719 C 37.390625 67.886719 37.832031 68.328125 37.832031 68.875 Z M 37.832031 68.875 " fill-opacity="1" fill-rule="nonzero"/><path fill="#000000" d="M 18.144531 56.042969 C 18.144531 57.132812 17.261719 58.015625 16.175781 58.015625 C 15.089844 58.015625 14.207031 57.132812 14.207031 56.042969 C 14.207031 54.949219 15.089844 54.066406 16.175781 54.066406 C 17.261719 54.066406 18.144531 54.949219 18.144531 56.042969 Z M 18.144531 56.042969 " fill-opacity="1" fill-rule="nonzero"/><path fill="#000000" d="M 14.207031 53.082031 C 14.207031 53.625 13.765625 54.066406 13.222656 54.066406 C 12.679688 54.066406 12.238281 53.625 12.238281 53.082031 C 12.238281 52.535156 12.679688 52.09375 13.222656 52.09375 C 13.765625 52.09375 14.207031 52.535156 14.207031 53.082031 Z M 14.207031 53.082031 " fill-opacity="1" fill-rule="nonzero"/></svg>